<svg width="29" height="21" viewBox="0 0 29 21" fill="none" xmlns="http://www.w3.org/2000/svg">
<path fill-rule="evenodd" clip-rule="evenodd" d="M21.3901 20.5014L19.8241 18.6371C22.8815 17.8168 24.0747 15.7287 24.0747 15.7287C20.1969 19.3828 9.60757 19.5319 5.50606 15.7287C5.50606 15.7287 6.55008 17.6676 9.68214 18.6371L7.96697 20.5014C2.74687 20.4268 0.733398 16.9219 0.733398 16.9219C0.733398 9.16632 4.16375 2.97677 4.16375 2.97677C7.66867 0.515869 10.8753 0.515869 10.8753 0.515869L11.099 0.814161C6.7738 2.00733 4.90948 3.94622 4.90948 3.94622C9.98043 0.515869 20.4206 0.814161 24.5221 3.94622C24.5967 3.87165 22.0612 1.85818 18.1089 0.814161L18.4817 0.515869C18.4817 0.515869 21.6884 0.515869 25.1933 2.97677C25.1933 2.97677 28.6236 9.16632 28.6236 16.9219C28.6236 16.9219 26.6102 20.4268 21.3901 20.5014ZM10.2042 14.6847C11.5633 14.6847 12.6651 13.5162 12.6651 12.0747C12.6651 10.6332 11.5633 9.46461 10.2042 9.46461C8.84508 9.46461 7.7433 10.6332 7.7433 12.0747C7.7433 13.5162 8.84508 14.6847 10.2042 14.6847ZM21.3157 12.0747C21.3157 13.5162 20.2139 14.6847 18.8548 14.6847C17.4957 14.6847 16.3939 13.5162 16.3939 12.0747C16.3939 10.6332 17.4957 9.46461 18.8548 9.46461C20.2139 9.46461 21.3157 10.6332 21.3157 12.0747Z" fill="#FDF40A"/>
</svg>
