<svg width="31" height="38" viewBox="0 0 31 38" fill="none" xmlns="http://www.w3.org/2000/svg">
<path d="M15.4651 20.7674L14.5284 21.7042C14.7769 21.9524 15.1138 22.0919 15.4651 22.0919C15.8164 22.0919 16.1533 21.9524 16.4019 21.7042L15.4651 20.7674ZM12.867 16.2958C12.7456 16.1656 12.5993 16.0611 12.4367 15.9887C12.2741 15.9162 12.0985 15.8773 11.9206 15.8741C11.7426 15.871 11.5658 15.9037 11.4007 15.9704C11.2357 16.0371 11.0857 16.1363 10.9598 16.2622C10.834 16.388 10.7347 16.538 10.6681 16.703C10.6014 16.8681 10.5687 17.0449 10.5718 17.2229C10.5749 17.4009 10.6139 17.5764 10.6863 17.739C10.7588 17.9016 10.8633 18.0479 10.9935 18.1693L12.867 16.2958ZM19.9367 18.1693C20.067 18.0479 20.1714 17.9016 20.2439 17.739C20.3163 17.5764 20.3553 17.4009 20.3584 17.2229C20.3616 17.0449 20.3288 16.8681 20.2622 16.703C20.1955 16.538 20.0963 16.388 19.9704 16.2622C19.8445 16.1363 19.6946 16.0371 19.5295 15.9704C19.3645 15.9037 19.1877 15.871 19.0097 15.8741C18.8317 15.8773 18.6562 15.9162 18.4936 15.9887C18.331 16.0611 18.1846 16.1656 18.0633 16.2958L19.9367 18.1693ZM0 15.4651V22.5349H2.65116V15.4651H0ZM30.9302 22.5349V15.4651H28.2791V22.5349H30.9302ZM14.1395 6.62791V20.7674H16.7907V6.62791H14.1395ZM16.4019 19.8307L12.867 16.2958L10.9935 18.1693L14.5284 21.7042L16.4019 19.8307ZM16.4019 21.7042L19.9367 18.1693L18.0633 16.2958L14.5284 19.8307L16.4019 21.7042ZM30.9302 15.4651C30.9302 11.3635 29.3009 7.4299 26.4006 4.52963C23.5003 1.62936 19.5667 0 15.4651 0V2.65116C18.8636 2.65116 22.1229 4.0012 24.5259 6.40428C26.929 8.80737 28.2791 12.0666 28.2791 15.4651H30.9302ZM15.4651 38C17.496 38 19.507 37.6 21.3834 36.8228C23.2597 36.0456 24.9645 34.9064 26.4006 33.4704C27.8367 32.0343 28.9758 30.3294 29.753 28.4531C30.5302 26.5768 30.9302 24.5658 30.9302 22.5349H28.2791C28.2791 25.9334 26.929 29.1926 24.5259 31.5957C22.1229 33.9988 18.8636 35.3488 15.4651 35.3488V38ZM0 22.5349C0 26.6365 1.62936 30.5701 4.52963 33.4704C7.4299 36.3706 11.3635 38 15.4651 38V35.3488C12.0666 35.3488 8.80737 33.9988 6.40428 31.5957C4.0012 29.1926 2.65116 25.9334 2.65116 22.5349H0ZM2.65116 15.4651C2.65116 12.0666 4.0012 8.80737 6.40428 6.40428C8.80737 4.0012 12.0666 2.65116 15.4651 2.65116V0C11.3635 0 7.4299 1.62936 4.52963 4.52963C1.62936 7.4299 0 11.3635 0 15.4651H2.65116Z" fill="#F5F5F5"/>
</svg>
