<svg width="24" height="19" viewBox="0 0 24 19" fill="none" xmlns="http://www.w3.org/2000/svg">
<path d="M23.3164 2.31942C22.4813 2.69549 21.5841 2.94959 20.6409 3.06444C21.6141 2.47269 22.3422 1.54133 22.6893 0.444163C21.775 0.996057 20.7742 1.38453 19.7307 1.59269C19.0289 0.831274 18.0994 0.326592 17.0864 0.157003C16.0734 -0.0125853 15.0337 0.162408 14.1287 0.654814C13.2236 1.14722 12.5039 1.92949 12.0811 2.88017C11.6584 3.83085 11.5564 4.89676 11.7909 5.91239C9.9382 5.81786 8.12574 5.32852 6.47118 4.47612C4.81661 3.62373 3.35691 2.42732 2.18682 0.964559C1.78673 1.66588 1.55668 2.47899 1.55668 3.34497C1.55623 4.12454 1.74515 4.89217 2.10668 5.57976C2.4682 6.26734 2.99115 6.85362 3.62913 7.28657C2.88925 7.26264 2.16568 7.05949 1.51867 6.694V6.75499C1.51859 7.84837 1.89078 8.90811 2.57208 9.75438C3.25338 10.6007 4.20183 11.1813 5.25649 11.3979C4.57012 11.5867 3.85052 11.6145 3.15203 11.4792C3.44959 12.42 4.02921 13.2427 4.80976 13.8321C5.5903 14.4215 6.53268 14.7481 7.50498 14.7663C5.85445 16.0829 3.81606 16.7971 1.71771 16.794C1.34601 16.7941 0.974626 16.772 0.605469 16.7279C2.73541 18.1195 5.21482 18.8581 7.74703 18.8552C16.3189 18.8552 21.0049 11.6408 21.0049 5.38387C21.0049 5.18059 20.9999 4.97527 20.9909 4.77199C21.9024 4.10216 22.6892 3.2727 23.3144 2.32247L23.3164 2.31942Z" fill="#FDF40A"/>
</svg>
